<?xml version="1.0" standalone="no"?>
<!DOCTYPE svg PUBLIC "-//W3C//DTD SVG 20010904//EN"
 "http://www.w3.org/TR/2001/REC-SVG-20010904/DTD/svg10.dtd">
<svg version="1.0" xmlns="http://www.w3.org/2000/svg"
 width="300.000000pt" height="300.000000pt" viewBox="0 0 300.000000 300.000000"
 preserveAspectRatio="xMidYMid meet">

<g transform="translate(0.000000,300.000000) scale(0.100000,-0.100000)"
fill="#000000" stroke="none">
<path d="M1215 1870 c-2 -3 -3 -121 -4 -263 0 -254 0 -257 22 -270 17 -11 69
-12 247 -6 124 4 244 5 268 2 l44 -6 -4 259 c-2 227 -5 261 -20 276 -15 15
-45 16 -283 15 -147 -1 -268 -4 -270 -7z m127 -132 c-9 -9 -12 -7 -12 12 0 19
3 21 12 12 9 -9 9 -15 0 -24z m358 -18 c27 -27 25 -50 -7 -92 -38 -49 -107
-94 -175 -113 -108 -31 -170 -7 -138 53 28 50 159 96 173 60 3 -9 7 -7 12 6
28 66 -140 29 -217 -49 -43 -43 -50 -85 -20 -118 12 -15 13 -18 2 -12 -64 35
-65 70 -5 134 71 76 224 124 286 91 25 -14 24 -32 -5 -67 -30 -35 -90 -57
-140 -51 -29 3 -36 1 -34 -11 5 -23 92 -20 142 4 64 31 116 87 116 124 0 19
-6 34 -15 37 -8 4 -15 10 -15 15 0 15 19 10 40 -11z"/>
<path d="M382 1189 c-2 -65 11 -83 55 -76 27 4 27 4 -4 6 -35 1 -39 9 -46 86
-3 32 -4 28 -5 -16z"/>
<path d="M468 1185 c-1 -30 0 -55 5 -55 4 0 7 25 7 55 0 71 -7 71 -12 0z"/>
<path d="M628 1233 l43 -4 -23 -32 c-12 -18 -30 -41 -40 -51 -28 -30 -22 -36
35 -34 50 1 50 2 10 5 -24 2 -43 7 -43 10 0 3 18 27 40 53 22 26 40 51 40 54
0 3 -24 5 -52 4 -51 -1 -51 -2 -10 -5z"/>
<path d="M804 1185 c-29 -68 -30 -81 -4 -55 12 12 18 25 15 30 -3 4 0 21 6 37
l11 28 13 -25 c8 -14 14 -33 15 -42 0 -10 5 -18 10 -18 6 0 10 -8 11 -17 0
-10 3 -13 5 -7 5 12 -41 124 -51 124 -3 0 -17 -25 -31 -55z"/>
<path d="M1002 1198 c13 -24 26 -54 29 -68 l7 -25 1 25 c1 14 12 44 26 68 13
23 21 42 17 42 -4 0 -16 -17 -28 -36 l-21 -37 -22 37 c-31 49 -36 46 -9 -6z"/>
<path d="M1296 1222 c10 -38 44 -112 52 -112 4 0 13 12 19 28 6 15 18 44 27
65 10 22 13 36 8 33 -5 -3 -17 -26 -26 -51 -10 -25 -21 -45 -25 -45 -4 0 -19
24 -34 53 -15 28 -25 41 -21 29z"/>
<path d="M1504 1178 l3 -63 49 -1 c45 -1 46 -1 7 3 -37 4 -43 7 -43 28 0 20 6
24 38 28 l37 4 -37 1 c-33 2 -38 5 -38 26 0 21 5 25 38 29 35 3 34 4 -10 5
l-46 2 2 -62z"/>
<path d="M1845 1228 c-11 -6 -23 -16 -27 -22 -25 -37 13 -96 62 -96 61 0 88
74 40 112 -25 21 -46 22 -75 6z m69 -14 c34 -34 9 -94 -39 -94 -24 0 -55 33
-55 57 0 20 38 53 59 53 11 0 27 -7 35 -16z"/>
<path d="M2048 1233 c17 -3 22 -11 22 -34 0 -16 5 -29 10 -29 6 0 8 13 5 29
-4 26 -2 30 22 34 16 2 3 4 -27 4 -30 0 -45 -2 -32 -4z"/>
<path d="M2230 1175 l0 -65 48 2 47 1 -42 4 c-38 4 -43 7 -43 28 0 20 6 24 38
28 l37 4 -37 1 c-33 2 -38 5 -38 26 0 21 5 25 38 29 l37 4 -42 1 -43 2 0 -65z"/>
<path d="M2427 1233 c-14 -13 -7 -25 8 -13 8 7 24 10 35 7 11 -3 20 -1 20 4 0
10 -53 12 -63 2z"/>
<path d="M2613 1175 c0 -38 2 -53 4 -32 2 20 2 52 0 70 -2 17 -4 1 -4 -38z"/>
<path d="M2415 1191 c3 -5 21 -15 41 -21 45 -15 44 -45 -3 -45 -17 0 -29 -3
-26 -8 2 -4 20 -6 39 -5 30 2 34 5 34 29 0 22 -6 29 -30 34 -16 4 -32 11 -35
16 -4 5 -11 9 -16 9 -6 0 -8 -4 -4 -9z"/>
<path d="M830 1150 c0 -5 5 -10 10 -10 6 0 10 5 10 10 0 6 -4 10 -10 10 -5 0
-10 -4 -10 -10z"/>
<path d="M2070 1141 c0 -25 6 -27 13 -6 4 8 2 17 -3 20 -6 4 -10 -3 -10 -14z"/>
</g>
</svg>
